<?xml version="1.0" standalone="no"?>
<!DOCTYPE svg PUBLIC "-//W3C//DTD SVG 20010904//EN"
 "http://www.w3.org/TR/2001/REC-SVG-20010904/DTD/svg10.dtd">
<svg version="1.0" xmlns="http://www.w3.org/2000/svg"
 width="300.000000pt" height="300.000000pt" viewBox="0 0 300.000000 300.000000"
 preserveAspectRatio="xMidYMid meet">
<metadata>
Created by potrace 1.16, written by Peter Selinger 2001-2019
</metadata>
<g transform="translate(0.000000,300.000000) scale(0.100000,-0.100000)"
fill="#000000" stroke="none">
<path d="M2628 2272 c-116 -237 -171 -304 -310 -378 -112 -58 -189 -79 -408
-109 -418 -58 -511 -86 -593 -180 -23 -26 -67 -111 -66 -127 0 -7 4 -3 9 10
30 73 110 130 215 152 28 6 160 15 295 20 270 9 347 22 456 79 60 30 148 98
172 132 7 10 22 24 33 29 32 18 -46 -86 -118 -157 -102 -99 -288 -212 -414
-251 -36 -11 -129 -32 -205 -46 -76 -15 -161 -30 -189 -35 -27 -6 -70 -13 -95
-16 -181 -24 -557 -102 -697 -145 -172 -53 -309 -153 -363 -265 -38 -80 -38
-89 1 -35 111 152 238 189 729 210 406 17 546 33 726 86 92 26 216 84 292 136
142 97 324 352 451 635 52 116 155 383 149 388 -2 2 -34 -58 -70 -133z"/>
<path d="M451 2055 c19 -27 75 -90 124 -140 111 -112 172 -146 280 -153 99 -6
178 9 379 75 154 50 180 56 263 57 81 1 95 -2 125 -23 l33 -24 -29 31 c-48 52
-100 66 -219 59 -56 -3 -154 -17 -217 -30 -162 -35 -300 -51 -382 -44 -116 10
-231 74 -342 191 l-48 51 33 -50z"/>
<path d="M1457 907 c-19 -18 -27 -48 -46 -183 -13 -89 -21 -169 -18 -178 8
-21 54 -20 65 2 5 9 15 63 22 120 8 56 16 99 20 95 4 -4 17 -48 30 -98 26
-102 43 -135 68 -135 30 0 39 18 69 126 15 57 30 104 34 104 3 0 11 -46 18
-102 13 -107 22 -128 51 -128 39 0 44 24 26 138 -38 236 -37 232 -62 249 -22
14 -26 14 -47 0 -18 -12 -31 -40 -51 -114 -16 -54 -31 -101 -35 -106 -4 -4
-20 39 -35 95 -26 95 -50 138 -78 138 -5 0 -19 -10 -31 -23z"/>
<path d="M2143 873 c-35 -4 -43 -17 -18 -27 8 -3 15 -14 15 -25 0 -15 -9 -21
-39 -26 -50 -8 -81 -37 -81 -75 0 -49 28 -67 103 -67 63 0 107 13 80 24 -9 3
-13 34 -13 104 0 54 -3 98 -7 97 -5 0 -23 -3 -40 -5z m-15 -105 c18 -18 15
-77 -4 -85 -24 -9 -49 10 -52 41 -6 45 29 71 56 44z"/>
<path d="M340 763 c-25 -53 -46 -100 -48 -104 -5 -13 86 -11 93 1 3 6 24 10
45 10 21 0 42 -4 45 -10 3 -5 28 -10 55 -10 l48 0 -40 83 c-22 45 -44 92 -49
105 -7 19 -16 22 -56 22 l-48 0 -45 -97z m176 -5 l45 -93 -38 -3 c-21 -2 -39
1 -41 7 -5 14 -102 15 -102 1 0 -5 -16 -10 -35 -10 -19 0 -35 4 -35 9 0 5 19
48 41 95 l41 86 40 0 39 0 45 -92z"/>
<path d="M420 781 c0 -5 -3 -18 -6 -28 -6 -16 -5 -16 9 2 15 18 17 18 18 3 3
-32 4 -36 12 -44 10 -11 9 8 -4 45 -10 29 -29 43 -29 22z"/>
<path d="M600 755 l0 -105 105 0 105 0 0 25 c0 23 -3 25 -49 25 -27 0 -57 3
-67 7 -12 4 -15 3 -10 -5 4 -7 31 -12 62 -12 41 0 54 -4 54 -15 0 -12 -17 -15
-95 -15 l-95 0 0 96 0 96 40 -4 c22 -2 40 0 40 4 0 5 -20 8 -45 8 l-45 0 0
-105z"/>
<path d="M830 830 c0 -16 4 -30 9 -30 4 0 6 11 3 25 l-4 25 117 0 117 0 -4
-25 c-3 -14 -1 -25 3 -25 5 0 9 14 9 30 l0 30 -125 0 -125 0 0 -30z"/>
<path d="M1142 776 c-62 -129 -62 -126 -8 -126 25 0 46 5 46 10 0 6 20 10 45
10 25 0 45 -4 45 -10 0 -5 23 -10 51 -10 28 0 49 4 47 8 -1 5 -23 52 -48 105
l-45 97 -46 0 -47 0 -40 -84z m167 -12 c22 -47 41 -90 41 -95 0 -5 -16 -9 -35
-9 -19 0 -35 5 -35 10 0 13 -93 13 -107 -1 -6 -6 -25 -9 -42 -7 l-32 3 45 93
45 92 39 0 40 0 41 -86z"/>
<path d="M1212 767 c-7 -18 -12 -40 -11 -48 0 -8 5 1 10 19 11 37 29 34 29 -4
0 -14 4 -23 9 -19 6 3 6 18 -1 38 -16 48 -23 50 -36 14z"/>
<path d="M2247 853 c-16 -15 -6 -33 18 -33 18 0 25 5 25 20 0 20 -28 28 -43
13z"/>
<path d="M2442 839 c-59 -30 -92 -80 -92 -142 0 -42 5 -54 34 -83 26 -26 42
-34 70 -34 20 0 36 5 36 10 0 6 -11 10 -24 10 -77 0 -107 130 -45 196 46 49
151 54 188 10 22 -27 25 -85 6 -106 -32 -35 -48 -26 -42 23 2 23 6 49 8 57 6
21 -41 25 -85 6 -58 -24 -100 -117 -60 -133 8 -3 27 0 42 8 15 7 30 15 35 17
4 2 7 -3 7 -12 0 -12 10 -16 36 -16 28 0 44 8 70 34 45 45 47 92 5 138 -24 27
-36 32 -87 35 -46 3 -68 -1 -102 -18z m87 -96 c-20 -53 -59 -74 -59 -32 0 34
19 59 45 59 23 0 24 -2 14 -27z"/>
<path d="M990 731 l0 -70 -42 -4 -43 -4 48 -1 47 -2 0 75 c0 41 -2 75 -5 75
-3 0 -5 -31 -5 -69z"/>
<path d="M1890 793 c-53 -20 -70 -98 -28 -127 31 -22 81 -20 109 4 l24 21 -32
-6 c-32 -6 -73 8 -73 25 0 6 12 10 28 10 38 0 72 11 72 22 0 5 -11 20 -25 33
-23 24 -44 29 -75 18z m38 -36 c2 -12 -3 -17 -17 -17 -12 0 -21 6 -21 13 0 31
32 34 38 4z"/>
<path d="M2258 792 c-28 -3 -36 -16 -18 -27 6 -3 10 -24 10 -45 0 -21 -4 -42
-10 -45 -23 -14 -7 -25 35 -25 25 0 45 5 45 10 0 6 -4 10 -10 10 -6 0 -10 26
-10 59 0 33 -3 61 -7 63 -5 2 -20 2 -35 0z"/>
</g>
</svg>
